<svg xmlns="http://www.w3.org/2000/svg" width="256" height="256" viewBox="0 0 100 100"><rect width="100" height="100" rx="20" fill="#6c63ff"></rect><path d="M25.56 73.53L25.56 73.53Q19.19 73.53 14.38 70.57Q9.57 67.61 6.91 62.32Q4.24 57.02 4.24 50.06L4.24 50.06Q4.24 43.11 6.94 37.78Q9.64 32.45 14.61 29.46Q19.58 26.47 26.34 26.47L26.34 26.47Q34.01 26.47 39.11 30.17Q44.22 33.88 45.71 40.38L45.71 40.38L39.41 40.38Q38.50 36.28 35.08 33.88Q31.67 31.48 26.34 31.48L26.34 31.48Q21.34 31.48 17.63 33.72Q13.93 35.96 11.88 40.12Q9.83 44.28 9.83 50.06L9.83 50.06Q9.83 55.85 11.85 60.01Q13.86 64.17 17.44 66.41Q21.01 68.66 25.76 68.66L25.76 68.66Q33.04 68.66 36.74 64.40Q40.45 60.14 40.97 52.73L40.97 52.73L27.84 52.73L27.84 48.44L46.56 48.44L46.56 72.75L41.55 72.75L41.10 65.28Q38.63 69.24 35.05 71.39Q31.48 73.53 25.56 73.53ZM74.77 73.53L74.77 73.53Q68.39 73.53 63.59 70.57Q58.77 67.61 56.11 62.32Q53.45 57.02 53.45 50.06L53.45 50.06Q53.45 43.11 56.14 37.78Q58.84 32.45 63.81 29.46Q68.78 26.47 75.55 26.47L75.55 26.47Q83.22 26.47 88.32 30.17Q93.42 33.88 94.91 40.38L94.91 40.38L88.61 40.38Q87.70 36.28 84.29 33.88Q80.88 31.48 75.55 31.48L75.55 31.48Q70.54 31.48 66.84 33.72Q63.13 35.96 61.08 40.12Q59.03 44.28 59.03 50.06L59.03 50.06Q59.03 55.85 61.05 60.01Q63.06 64.17 66.64 66.41Q70.22 68.66 74.96 68.66L74.96 68.66Q82.24 68.66 85.94 64.40Q89.65 60.14 90.17 52.73L90.17 52.73L77.04 52.73L77.04 48.44L95.76 48.44L95.76 72.75L90.75 72.75L90.30 65.28Q87.83 69.24 84.25 71.39Q80.68 73.53 74.77 73.53Z" fill="#fff"></path></svg>