<?xml version="1.0" standalone="no"?>
<svg xmlns:xlink="http://www.w3.org/1999/xlink" id="wave" style="transform:rotate(180deg); transition: 0.3s" viewBox="0 0 1440 490" version="1.1" xmlns="http://www.w3.org/2000/svg"><defs><linearGradient id="sw-gradient-0" x1="0" x2="0" y1="1" y2="0"><stop stop-color="rgba(243, 106, 62, 1)" offset="0%"/><stop stop-color="rgba(255, 179, 11, 1)" offset="100%"/></linearGradient></defs><path style="transform:translate(0, 0px); opacity:1" fill="url(#sw-gradient-0)" d="M0,392L60,334.8C120,278,240,163,360,147C480,131,600,212,720,220.5C840,229,960,163,1080,130.7C1200,98,1320,98,1440,122.5C1560,147,1680,196,1800,196C1920,196,2040,147,2160,122.5C2280,98,2400,98,2520,147C2640,196,2760,294,2880,277.7C3000,261,3120,131,3240,89.8C3360,49,3480,98,3600,147C3720,196,3840,245,3960,228.7C4080,212,4200,131,4320,147C4440,163,4560,278,4680,285.8C4800,294,4920,196,5040,155.2C5160,114,5280,131,5400,122.5C5520,114,5640,82,5760,57.2C5880,33,6000,16,6120,49C6240,82,6360,163,6480,236.8C6600,310,6720,376,6840,343C6960,310,7080,180,7200,138.8C7320,98,7440,147,7560,163.3C7680,180,7800,163,7920,130.7C8040,98,8160,49,8280,24.5C8400,0,8520,0,8580,0L8640,0L8640,490L8580,490C8520,490,8400,490,8280,490C8160,490,8040,490,7920,490C7800,490,7680,490,7560,490C7440,490,7320,490,7200,490C7080,490,6960,490,6840,490C6720,490,6600,490,6480,490C6360,490,6240,490,6120,490C6000,490,5880,490,5760,490C5640,490,5520,490,5400,490C5280,490,5160,490,5040,490C4920,490,4800,490,4680,490C4560,490,4440,490,4320,490C4200,490,4080,490,3960,490C3840,490,3720,490,3600,490C3480,490,3360,490,3240,490C3120,490,3000,490,2880,490C2760,490,2640,490,2520,490C2400,490,2280,490,2160,490C2040,490,1920,490,1800,490C1680,490,1560,490,1440,490C1320,490,1200,490,1080,490C960,490,840,490,720,490C600,490,480,490,360,490C240,490,120,490,60,490L0,490Z"/><defs><linearGradient id="sw-gradient-1" x1="0" x2="0" y1="1" y2="0"><stop stop-color="rgba(243, 106, 62, 1)" offset="0%"/><stop stop-color="rgba(255, 179, 11, 1)" offset="100%"/></linearGradient></defs><path style="transform:translate(0, 50px); opacity:0.9" fill="url(#sw-gradient-1)" d="M0,98L60,130.7C120,163,240,229,360,285.8C480,343,600,392,720,375.7C840,359,960,278,1080,236.8C1200,196,1320,196,1440,196C1560,196,1680,196,1800,220.5C1920,245,2040,294,2160,334.8C2280,376,2400,408,2520,408.3C2640,408,2760,376,2880,302.2C3000,229,3120,114,3240,89.8C3360,65,3480,131,3600,171.5C3720,212,3840,229,3960,228.7C4080,229,4200,212,4320,236.8C4440,261,4560,327,4680,294C4800,261,4920,131,5040,122.5C5160,114,5280,229,5400,294C5520,359,5640,376,5760,343C5880,310,6000,229,6120,196C6240,163,6360,180,6480,171.5C6600,163,6720,131,6840,163.3C6960,196,7080,294,7200,334.8C7320,376,7440,359,7560,310.3C7680,261,7800,180,7920,187.8C8040,196,8160,294,8280,343C8400,392,8520,392,8580,392L8640,392L8640,490L8580,490C8520,490,8400,490,8280,490C8160,490,8040,490,7920,490C7800,490,7680,490,7560,490C7440,490,7320,490,7200,490C7080,490,6960,490,6840,490C6720,490,6600,490,6480,490C6360,490,6240,490,6120,490C6000,490,5880,490,5760,490C5640,490,5520,490,5400,490C5280,490,5160,490,5040,490C4920,490,4800,490,4680,490C4560,490,4440,490,4320,490C4200,490,4080,490,3960,490C3840,490,3720,490,3600,490C3480,490,3360,490,3240,490C3120,490,3000,490,2880,490C2760,490,2640,490,2520,490C2400,490,2280,490,2160,490C2040,490,1920,490,1800,490C1680,490,1560,490,1440,490C1320,490,1200,490,1080,490C960,490,840,490,720,490C600,490,480,490,360,490C240,490,120,490,60,490L0,490Z"/></svg>